<?xml version="1.0" encoding="iso-8859-1"?>
<!-- Generator: Adobe Illustrator 18.1.1, SVG Export Plug-In . SVG Version: 6.00 Build 0)  -->
<svg version="1.1" id="Capa_1" xmlns="http://www.w3.org/2000/svg" xmlns:xlink="http://www.w3.org/1999/xlink" x="0px" y="0px"
	 viewBox="0 0 199.793 199.793" style="enable-background:new 0 0 199.793 199.793;" xml:space="preserve">
	 
<g>
	<g>
		<path style="fill:#010002;" d="M182.554,52.21c-7.473,0-12.687,3.951-15.926,7.63v-9.348c0.87-0.666,3.318-1.607,4.209-1.954
			c1.668-0.644,3.736-1.439,3.31-3.779c-0.211-1.109-1.138-2.298-3.11-2.298H28.91c-2.484,0-3.006,1.764-3.11,2.305
			c-0.437,2.333,1.643,3.139,3.364,3.797c0.834,0.322,3.267,1.267,4.134,1.929v9.509c-3.246-3.765-8.489-7.795-16.048-7.795H0
			v11.102l16.524-0.004c0.426,0.032,10.461,0.916,16.77,19.473v85.567c0,4.105,3.35,7.451,7.455,7.451H159.18
			c4.105,0,7.444-3.346,7.444-7.451V82.398c6.302-18.109,16.144-19.05,16.524-19.086h16.645V52.21
			C199.793,52.21,182.554,52.21,182.554,52.21z M182.554,56.505h12.948v2.516l-12.465,0.004c-0.387,0.014-9.223,0.569-16.409,12.912
			v-4.588C168.464,64.006,173.603,56.505,182.554,56.505z M38.161,47.887l123.61,0.004c-0.372,0.63-0.558,1.306-0.558,2.022v118.431
			c0,1.12-0.913,2.029-2.029,2.029H40.749c-1.12,0-2.026-0.913-2.026-2.029V49.916C38.723,49.204,38.537,48.524,38.161,47.887z
			 M4.287,56.505H17.25c9.133,0,14.237,7.673,16.048,11.091v4.563c-7.219-12.587-16.23-13.12-16.642-13.138H4.287V56.505z"/>
		<polygon style="fill:#010002;" points="167.648,27.695 113.722,27.695 113.722,23.998 84.382,23.998 84.382,27.695 35.42,27.695 
			35.42,34.241 167.648,34.241 		"/>
	</g>
</g>
<g>
</g>
<g>
</g>
<g>
</g>
<g>
</g>
<g>
</g>
<g>
</g>
<g>
</g>
<g>
</g>
<g>
</g>
<g>
</g>
<g>
</g>
<g>
</g>
<g>
</g>
<g>
</g>
<g>
</g>
</svg>
