<?xml version="1.0" encoding="iso-8859-1"?>
<!-- Generator: Adobe Illustrator 19.0.0, SVG Export Plug-In . SVG Version: 6.00 Build 0)  -->
<svg version="1.1" id="Layer_1" xmlns="http://www.w3.org/2000/svg" xmlns:xlink="http://www.w3.org/1999/xlink" x="0px" y="0px"
	 viewBox="0 0 512 512" style="enable-background:new 0 0 512 512;" xml:space="preserve">
	 
<g>
	<g>
		<path d="M487.899,253.143h-25.227v-15.524c0-24.878-20.239-45.117-45.117-45.117h-49.708
			c-8.034-12.482-22.04-20.772-37.955-20.772H202.887c-17.988,0-33.544,10.584-40.785,25.848c-2.382-0.729-4.819-1.268-7.303-1.56
			c-4.179-0.496-7.95,2.493-8.44,6.664c-0.49,4.171,2.493,7.95,6.664,8.44c1.698,0.2,3.364,0.577,4.983,1.097
			c-1.702,15.73-0.236,40.923-0.236,40.923H44.623c1.448-4.677,5.812-8.085,10.96-8.085c1.048,0,2.118,0.155,3.18,0.461
			c2.049,0.591,4.251,0.294,6.07-0.818c1.819-1.112,3.088-2.936,3.498-5.029c1.49-7.621,8.219-13.152,15.999-13.152
			c2.27,0,4.47,0.46,6.539,1.368c1.956,0.859,4.182,0.855,6.136-0.012c1.953-0.866,3.451-2.513,4.129-4.539
			c1.567-4.685,5.935-7.833,10.867-7.833c3.079,0,5.972,1.206,8.143,3.398c1.428,1.44,3.372,2.25,5.4,2.25c0.006,0,0.012,0,0.018,0
			c2.034-0.005,3.981-0.824,5.407-2.276c1.302-1.325,2.746-2.517,4.29-3.541c3.5-2.322,4.644-7.174,2.133-10.54
			c-4.914-6.587-11.631-1.391-12.164-1c-3.983-2.283-8.511-3.499-13.228-3.499c-8.933,0-17.069,4.434-21.957,11.533
			c-1.873-0.344-22.865-4.327-34.436,18.019c-0.008,0-0.016,0-0.024,0c-13.563,0-24.787,10.176-26.457,23.293H24.1
			C10.812,253.143,0,263.955,0,277.245s10.812,24.1,24.1,24.1h7.281l20.63,30.249c3.706,5.431,9.842,8.674,16.415,8.674h239.786
			c4.199,0,7.604-3.404,7.604-7.604s-3.405-7.604-7.604-7.604H68.427c-1.542,0-2.983-0.761-3.852-2.036l-14.786-21.679h412.424
			l-14.785,21.679c-0.87,1.274-2.31,2.036-3.853,2.036h-75.544c-4.199,0-7.604,3.405-7.604,7.604s3.405,7.604,7.604,7.604h75.544
			c6.574,0,12.711-3.242,16.416-8.674l20.63-30.248h7.277c13.29,0,24.1-10.812,24.1-24.1
			C512,263.956,501.188,253.143,487.899,253.143z M417.555,207.712c16.491,0,29.909,13.417,29.909,29.909v15.524h-72.455v-36.296
			c0-3.13-0.321-6.185-0.931-9.137H417.555z M172.978,216.847c0-16.492,13.417-29.909,29.909-29.909h127.006
			c16.492,0,29.909,13.416,29.909,29.909v36.296H172.978V216.847z M487.899,286.138H24.1c-4.903,0-8.893-3.99-8.893-8.893
			c0-4.904,3.99-8.894,8.893-8.894h463.798c4.903,0,8.893,3.99,8.893,8.894C496.792,282.148,492.803,286.138,487.899,286.138z"/>
	</g>
</g>
<g>
	<g>
		<path d="M344.713,325.061h-13.18c-4.199,0-7.604,3.405-7.604,7.604c0,4.199,3.405,7.604,7.604,7.604h13.18
			c4.199,0,7.604-3.405,7.604-7.604C352.317,328.466,348.912,325.061,344.713,325.061z"/>
	</g>
</g>
<g>
	<g>
		<path d="M152.138,224.065c-1.419-1.419-3.377-2.23-5.384-2.23c-1.998,0-3.955,0.811-5.373,2.23
			c-1.419,1.409-2.23,3.376-2.23,5.373c0,2.007,0.811,3.964,2.23,5.384c1.419,1.409,3.375,2.22,5.373,2.22
			c2.007,0,3.964-0.811,5.384-2.22c1.409-1.419,2.22-3.376,2.22-5.384C154.358,227.441,153.548,225.484,152.138,224.065z"/>
	</g>
</g>
<g>
	<g>
		<path d="M127.21,235.387c-1.419-1.419-3.377-2.23-5.384-2.23c-1.998,0-3.955,0.811-5.373,2.23
			c-1.419,1.409-2.231,3.376-2.231,5.373c0,2.007,0.811,3.964,2.231,5.384c1.419,1.409,3.375,2.22,5.373,2.22
			c2.007,0,3.964-0.811,5.384-2.22c1.409-1.419,2.22-3.376,2.22-5.384C129.431,238.763,128.621,236.806,127.21,235.387z"/>
	</g>
</g>
<g>
	<g>
		<path d="M94.348,236.29c-1.419-1.419-3.377-2.23-5.384-2.23c-1.998,0-3.955,0.811-5.373,2.23c-1.419,1.409-2.23,3.376-2.23,5.373
			c0,2.007,0.811,3.964,2.23,5.384c1.419,1.409,3.375,2.22,5.373,2.22c2.007,0,3.964-0.811,5.384-2.22
			c1.409-1.419,2.22-3.376,2.22-5.384C96.569,239.666,95.759,237.71,94.348,236.29z"/>
	</g>
</g>
<g>
	<g>
		<path d="M271.773,205.565c-1.419-1.419-3.377-2.23-5.384-2.23c-1.998,0-3.955,0.811-5.373,2.23
			c-1.419,1.409-2.23,3.376-2.23,5.373c0,2.007,0.811,3.964,2.23,5.384c1.419,1.409,3.375,2.22,5.373,2.22
			c2.007,0,3.964-0.811,5.384-2.22c1.409-1.419,2.22-3.376,2.22-5.384C273.993,208.941,273.183,206.985,271.773,205.565z"/>
	</g>
</g>
<g>
	<g>
		<path d="M301.513,227.783c-1.419-1.419-3.377-2.23-5.384-2.23c-1.998,0-3.955,0.811-5.373,2.23
			c-1.419,1.409-2.231,3.376-2.231,5.373c0,2.007,0.811,3.964,2.231,5.384c1.419,1.409,3.375,2.22,5.373,2.22
			c2.006,0,3.964-0.811,5.384-2.22c1.409-1.419,2.22-3.376,2.22-5.384C303.734,231.159,302.924,229.202,301.513,227.783z"/>
	</g>
</g>
<g>
	<g>
		<path d="M316.721,197.961c-1.419-1.419-3.377-2.23-5.384-2.23c-1.998,0-3.955,0.811-5.373,2.23
			c-1.419,1.409-2.231,3.376-2.231,5.373c0,2.007,0.811,3.964,2.231,5.384c1.419,1.409,3.375,2.22,5.373,2.22
			c2.006,0,3.964-0.811,5.384-2.22c1.409-1.419,2.22-3.376,2.22-5.384C318.942,201.337,318.132,199.381,316.721,197.961z"/>
	</g>
</g>
<g>
	<g>
		<path d="M345.077,227.783c-1.419-1.419-3.377-2.23-5.384-2.23c-1.998,0-3.955,0.811-5.373,2.23
			c-1.419,1.409-2.23,3.376-2.23,5.373c0,2.007,0.811,3.964,2.23,5.384c1.419,1.409,3.375,2.22,5.373,2.22
			c2.006,0,3.964-0.811,5.384-2.22c1.409-1.419,2.22-3.376,2.22-5.384C347.297,231.159,346.487,229.202,345.077,227.783z"/>
	</g>
</g>
<g>
	<g>
		<path d="M246.395,235.387c-1.419-1.419-3.377-2.23-5.384-2.23c-1.998,0-3.955,0.811-5.373,2.23
			c-1.419,1.409-2.23,3.376-2.23,5.373c0,2.007,0.811,3.964,2.23,5.384c1.419,1.409,3.375,2.22,5.373,2.22
			c2.006,0,3.964-0.811,5.384-2.22c1.409-1.419,2.22-3.376,2.22-5.384C248.616,238.763,247.806,236.806,246.395,235.387z"/>
	</g>
</g>
<g>
	<g>
		<path d="M427.368,235.387c-1.419-1.419-3.377-2.23-5.384-2.23c-1.998,0-3.955,0.811-5.373,2.23
			c-1.419,1.409-2.231,3.376-2.231,5.373c0,2.007,0.811,3.964,2.231,5.384c1.419,1.409,3.375,2.22,5.373,2.22
			c2.006,0,3.964-0.811,5.384-2.22c1.409-1.419,2.22-3.376,2.22-5.384C429.589,238.763,428.779,236.806,427.368,235.387z"/>
	</g>
</g>
<g>
	<g>
		<path d="M405.027,216.461c-1.419-1.419-3.377-2.23-5.384-2.23c-1.998,0-3.955,0.811-5.373,2.23
			c-1.419,1.409-2.231,3.376-2.231,5.373c0,2.007,0.811,3.964,2.231,5.384c1.419,1.409,3.375,2.22,5.373,2.22
			c2.007,0,3.965-0.811,5.384-2.22c1.409-1.419,2.22-3.376,2.22-5.384C407.247,219.837,406.437,217.881,405.027,216.461z"/>
	</g>
</g>
<g>
</g>
<g>
</g>
<g>
</g>
<g>
</g>
<g>
</g>
<g>
</g>
<g>
</g>
<g>
</g>
<g>
</g>
<g>
</g>
<g>
</g>
<g>
</g>
<g>
</g>
<g>
</g>
<g>
</g>
</svg>
